<?xml version="1.0" encoding="UTF-8" standalone="no"?>
<!-- Created with Inkscape (http://www.inkscape.org/) -->

<svg
   width="106"
   height="125"
   viewBox="0 0 28.045831 33.072908"
   version="1.1"
   id="svg5"
   inkscape:version="1.1.2 (0a00cf5339, 2022-02-04)"
   sodipodi:docname="maple_icon.svg"
   inkscape:export-filename="/home/justin/rubyonrails/mapple/app/assets/images/shadow.png"
   inkscape:export-xdpi="96"
   inkscape:export-ydpi="96"
   xmlns:inkscape="http://www.inkscape.org/namespaces/inkscape"
   xmlns:sodipodi="http://sodipodi.sourceforge.net/DTD/sodipodi-0.dtd"
   xmlns:xlink="http://www.w3.org/1999/xlink"
   xmlns="http://www.w3.org/2000/svg"
   xmlns:svg="http://www.w3.org/2000/svg">
  <sodipodi:namedview
     id="namedview7"
     pagecolor="#505050"
     bordercolor="#eeeeee"
     borderopacity="1"
     inkscape:pageshadow="0"
     inkscape:pageopacity="0"
     inkscape:pagecheckerboard="true"
     inkscape:document-units="px"
     showgrid="false"
     units="px"
     width="101px"
     inkscape:zoom="2.3583933"
     inkscape:cx="72.506989"
     inkscape:cy="126.1452"
     inkscape:window-width="2186"
     inkscape:window-height="1429"
     inkscape:window-x="0"
     inkscape:window-y="0"
     inkscape:window-maximized="1"
     inkscape:current-layer="layer2" />
  <defs
     id="defs2">
    <color-profile
       name="Laptop-13--AMD-Ryzen-7040Series-"
       xlink:href="../.local/share/icc/edid-05844d77df56db3cf0d5d4ff8c8a41ac.icc"
       id="color-profile1020" />
    <filter
       inkscape:collect="always"
       style="color-interpolation-filters:sRGB"
       id="filter1886"
       x="-0.076241067"
       y="-0.076241067"
       width="1.1524821"
       height="1.1524821">
      <feGaussianBlur
         inkscape:collect="always"
         stdDeviation="0.82393176"
         id="feGaussianBlur1888" />
    </filter>
  </defs>
  <g
     inkscape:groupmode="layer"
     id="layer4"
     inkscape:label="shadow"
     sodipodi:insensitive="true"
     style="display:none">
    <circle
       style="opacity:0.805093;fill:#808080;fill-opacity:1;stroke-width:4.08039;filter:url(#filter1886)"
       id="path142-8"
       cx="13.14241"
       cy="13.065249"
       r="12.968314"
       transform="matrix(0.91624716,0.00275774,-0.00452093,0.5589064,3.7117543,11.348981)" />
    <circle
       style="opacity:0.805093;fill:#808080;fill-opacity:1;stroke-width:4.08039;filter:url(#filter1886)"
       id="circle15"
       cx="13.14241"
       cy="13.065249"
       r="12.968314"
       transform="matrix(0.91624716,0.00275774,-0.00452093,0.5589064,3.7117543,11.348981)" />
  </g>
  <g
     inkscape:groupmode="layer"
     id="layer2"
     inkscape:label="dot"
     style="display:inline"
     sodipodi:insensitive="true">
    <circle
       style="fill:#008000;stroke-width:4.08039"
       id="path142"
       cx="13.085932"
       cy="13.091657"
       r="12.968314" />
    <path
       style="fill:#008000;stroke:#000000;stroke-width:0.264984px;stroke-linecap:butt;stroke-linejoin:miter;stroke-opacity:0"
       d="M 2.0650354,19.944347 13.483709,33.075369 24.295607,19.638147 Z"
       id="path50" />
  </g>
  <g
     inkscape:groupmode="layer"
     id="layer3"
     inkscape:label="leaf"
     style="display:inline"
     sodipodi:insensitive="true">
    <path
       fill="#ff0000"
       d="M 12.529589,23.471885 12.76309,18.993851 A 0.49294723,0.49294723 0 0 0 12.187121,18.485337 L 7.7298423,19.268863 8.3317526,17.60841 A 0.33727968,0.33727968 0 0 0 8.2279592,17.229616 l -4.8827548,-3.953954 1.10005,-0.513703 A 0.33727968,0.33727968 0 0 0 4.6216895,12.352038 L 3.6565527,9.3839752 6.4689469,9.9807001 A 0.33727968,0.33727968 0 0 0 6.8477311,9.7835207 L 7.3925664,8.5018574 9.5874791,10.857628 A 0.33727968,0.33727968 0 0 0 10.163452,10.56186 L 9.1049105,5.1031163 10.801688,6.0838218 A 0.33727968,0.33727968 0 0 0 11.273877,5.9437212 L 12.9966,2.5605456 14.71932,5.9437203 a 0.33727968,0.33727968 0 0 0 0.472193,0.1401005 l 1.696774,-0.9807045 -1.058538,5.4587427 a 0.33727968,0.33727968 0 0 0 0.575969,0.295767 l 2.194912,-2.3557674 0.544836,1.2816633 a 0.33727968,0.33727968 0 0 0 0.378784,0.1971793 l 2.812394,-0.596726 -0.965136,2.9680618 a 0.33727968,0.33727968 0 0 0 0.176434,0.409921 l 1.100046,0.513704 -4.882769,3.953957 a 0.33727968,0.33727968 0 0 0 -0.103748,0.378788 l 0.60191,1.660456 -4.457278,-0.783526 a 0.49294723,0.49294723 0 0 0 -0.575969,0.508513 l 0.233501,4.478035 z"
       id="path1562"
       style="fill:#ffffff;stroke-width:0.00518889"
       inkscape:export-filename="/home/justin/rubyonrails/mapple/app/assets/images/icon_maple.png"
       inkscape:export-xdpi="96"
       inkscape:export-ydpi="96" />
  </g>
</svg>
